<svg xmlns="http://www.w3.org/2000/svg" xmlns:xlink="http://www.w3.org/1999/xlink" id="Layer_1" width="28" height="28" x="0" y="0" enable-background="new 0 0 28 28" version="1.1" viewBox="0 0 28 28" xml:space="preserve"><g><line x1="14" x2="14" y1="22.5" y2="24.5" fill="none" stroke="none" stroke-linecap="round" stroke-linejoin="round" stroke-miterlimit="10"/><line x1="23.5" x2="21.5" y1="15" y2="15" fill="none" stroke="none" stroke-linecap="round" stroke-linejoin="round" stroke-miterlimit="10"/><line x1="14" x2="14" y1="3.5" y2="7.5" fill="none" stroke="none" stroke-linecap="round" stroke-linejoin="round" stroke-miterlimit="10"/><line x1="10.939" x2="10.173" y1="21.891" y2="23.738" fill="none" stroke="none" stroke-linecap="round" stroke-linejoin="round" stroke-miterlimit="10"/><line x1="17.062" x2="17.826" y1="21.891" y2="23.738" fill="none" stroke="none" stroke-linecap="round" stroke-linejoin="round" stroke-miterlimit="10"/><line x1="6.5" x2="4.5" y1="15" y2="15" fill="none" stroke="none" stroke-linecap="round" stroke-linejoin="round" stroke-miterlimit="10"/><line x1="22.775" x2="20.93" y1="11.364" y2="12.13" fill="none" stroke="none" stroke-linecap="round" stroke-linejoin="round" stroke-miterlimit="10"/><line x1="7.07" x2="5.223" y1="17.87" y2="18.636" fill="none" stroke="none" stroke-linecap="round" stroke-linejoin="round" stroke-miterlimit="10"/><line x1="19.303" x2="20.717" y1="20.305" y2="21.718" fill="none" stroke="none" stroke-linecap="round" stroke-linejoin="round" stroke-miterlimit="10"/><line x1="20.717" x2="19.303" y1="8.282" y2="9.696" fill="none" stroke="none" stroke-linecap="round" stroke-linejoin="round" stroke-miterlimit="10"/><line x1="17.635" x2="16.869" y1="6.223" y2="8.071" fill="none" stroke="none" stroke-linecap="round" stroke-linejoin="round" stroke-miterlimit="10"/><line x1="10.363" x2="11.13" y1="6.224" y2="8.071" fill="none" stroke="none" stroke-linecap="round" stroke-linejoin="round" stroke-miterlimit="10"/><line x1="7.282" x2="8.696" y1="8.282" y2="9.696" fill="none" stroke="none" stroke-linecap="round" stroke-linejoin="round" stroke-miterlimit="10"/><line x1="8.696" x2="7.282" y1="20.305" y2="21.718" fill="none" stroke="none" stroke-linecap="round" stroke-linejoin="round" stroke-miterlimit="10"/><line x1="20.93" x2="22.775" y1="17.87" y2="18.636" fill="none" stroke="none" stroke-linecap="round" stroke-linejoin="round" stroke-miterlimit="10"/><line x1="5.223" x2="7.07" y1="11.364" y2="12.13" fill="none" stroke="none" stroke-linecap="round" stroke-linejoin="round" stroke-miterlimit="10"/></g></svg>