<svg xmlns="http://www.w3.org/2000/svg" xmlns:xlink="http://www.w3.org/1999/xlink" id="Layer_1" width="28" height="28" x="0" y="0" enable-background="new 0 0 28 28" version="1.1" viewBox="0 0 28 28" xml:space="preserve"><g><rect width="5" height="18" x="2.5" y="8.5" fill="none" stroke="none" stroke-linejoin="round" stroke-miterlimit="10"/><rect width="18" height="5" x="7.5" y="3.5" fill="none" stroke="none" stroke-linejoin="round" stroke-miterlimit="10"/><rect width="5" height="5" x="2.5" y="3.5" fill="none" stroke="none" stroke-linejoin="round" stroke-miterlimit="10"/><polygon fill="none" stroke="none" stroke-linejoin="round" stroke-miterlimit="10" points="20 26.5 7.5 26.5 7.5 8.5 25.5 8.5 25.5 21 20 26.5"/><polyline fill="none" stroke="none" stroke-linejoin="round" stroke-miterlimit="10" points="19.5 26.5 19.5 20.5 25.5 20.5"/><line x1="10.5" x2="10.5" y1="8.5" y2="5" fill="none" stroke="none" stroke-miterlimit="10"/><line x1="14.5" x2="14.5" y1="8.5" y2="6" fill="none" stroke="none" stroke-miterlimit="10"/><line x1="18.5" x2="18.5" y1="8.5" y2="6" fill="none" stroke="none" stroke-miterlimit="10"/><line x1="22.5" x2="22.5" y1="8.5" y2="5" fill="none" stroke="none" stroke-miterlimit="10"/><line x1="7.5" x2="4" y1="23.5" y2="23.5" fill="none" stroke="none" stroke-miterlimit="10"/><line x1="7.5" x2="5" y1="19.5" y2="19.5" fill="none" stroke="none" stroke-miterlimit="10"/><line x1="7.5" x2="5" y1="15.5" y2="15.5" fill="none" stroke="none" stroke-miterlimit="10"/><line x1="7.5" x2="4" y1="11.5" y2="11.5" fill="none" stroke="none" stroke-miterlimit="10"/></g></svg>